<svg width="987" height="987" viewBox="0 0 987 987" fill="none" xmlns="http://www.w3.org/2000/svg">
<path opacity="0.5" fill-rule="evenodd" clip-rule="evenodd" d="M267.312 71.9688C267.312 63.7885 264.063 55.9433 258.279 50.1589C252.494 44.3746 244.649 41.125 236.469 41.125C228.288 41.125 220.443 44.3746 214.659 50.1589C208.875 55.9433 205.625 63.7885 205.625 71.9688V894.469C205.625 902.649 208.875 910.494 214.659 916.279C220.443 922.063 228.288 925.312 236.469 925.312C244.649 925.312 252.494 922.063 258.279 916.279C264.063 910.494 267.312 902.649 267.312 894.469V148.05V71.9688Z" fill="red"/>
<path d="M548.978 155.864L540.588 152.491C476.32 126.787 405.963 120.328 338.089 133.903L267.312 148.05V559.3L338.048 545.153C405.935 531.57 476.307 538.028 540.588 563.741C610.237 591.593 686.891 596.787 759.661 578.588L768.462 576.408C780.958 573.289 792.052 566.082 799.98 555.933C807.909 545.783 812.217 533.275 812.219 520.396V217.428C812.216 209.933 810.507 202.538 807.22 195.803C803.933 189.068 799.156 183.169 793.25 178.556C787.344 173.942 780.465 170.734 773.134 169.175C765.804 167.616 758.215 167.747 750.943 169.558C683.851 186.322 613.182 181.557 548.978 155.864Z" fill="black"/>
</svg>
