<svg xmlns="http://www.w3.org/2000/svg" version="1.1" viewBox="26.26 9.77 47.48 80.45">   <path d="M72.2,10.1c-0.95-0.48-2.1-0.43-2.99,0.15L50,22.74L30.79,10.25c-0.89-0.58-2.04-0.64-2.99-0.15c-0.95,0.48-1.54,1.43-1.54,2.47v27.09c0,0,0,0.01,0,0.01v47.62c0,1.54,1.3,2.79,2.9,2.79s2.9-1.25,2.9-2.79V41.15L50,29.49l17.94,11.66v46.28c0,1.54,1.3,2.79,2.9,2.79s2.9-1.25,2.9-2.79V39.67c0,0,0-0.01,0-0.01V12.57C73.74,11.53,73.15,10.59,72.2,10.1z   M32.06,34.4V17.83l12.75,8.29L32.06,34.4z M67.94,34.4l-12.75-8.29l12.75-8.29V34.4z"/> </svg>