<svg xmlns="http://www.w3.org/2000/svg" xmlns:xlink="http://www.w3.org/1999/xlink" version="1.1" viewBox="25.96 10.13 48.08 79.75">   <path d="M27.08,89.28c1.26,0.95,3.09,0.74,4.08-0.48l19.05-23.38l18.62,23.35c0.57,0.72,1.43,1.09,2.31,1.09  c0.62,0,1.24-0.19,1.77-0.58c1.27-0.94,1.51-2.69,0.54-3.92L53.91,60.89l19.36-23.76c0.85-1.05,0.82-2.52-0.07-3.53L53.3,11.11  c-0.54-0.61-1.32-0.96-2.14-0.98c-0.83-0.02-1.62,0.3-2.19,0.88L27.48,33.08c-0.97,1-1.05,2.52-0.19,3.61l19.27,24.17L26.58,85.36  C25.59,86.57,25.82,88.33,27.08,89.28z M33.4,35.17l17.59-18.06l16.25,18.37L50.26,56.31L33.4,35.17z"/> </svg>