<svg xmlns="http://www.w3.org/2000/svg" version="1.1" viewBox="26.11 9.91 47.78 80.17">   <path d="M27.46,89.65c0.84,0.51,1.9,0.57,2.8,0.16l28.66-13.13l9.75,12.3c0.57,0.72,1.44,1.1,2.31,1.1c0.61,0,1.23-0.19,1.76-0.57c1.28-0.94,1.52-2.69,0.55-3.92L62.11,71.49c-0.83-1.05-2.32-1.4-3.56-0.83l-26.63,12.2V17.11L59,29.34c1.25,0.57,2.75,0.2,3.57-0.87l10.75-13.97c0.95-1.24,0.68-2.99-0.61-3.91c-1.29-0.92-3.11-0.66-4.06,0.58l-9.33,12.13L30.25,10.18c-0.9-0.41-1.95-0.34-2.79,0.17c-0.84,0.51-1.35,1.4-1.35,2.36v74.59C26.11,88.25,26.62,89.14,27.46,89.65z"/> </svg>