<svg width="24" height="24" viewBox="0 0 24 24" fill="none" xmlns="http://www.w3.org/2000/svg">
<path d="M3 20V4C3 3.44772 3.44772 3 4 3H20C20.5523 3 21 3.44772 21 4V20C21 20.5523 20.5523 21 20 21H4C3.44772 21 3 20.5523 3 20Z" stroke="black" stroke-width="1.5"/>
<path d="M6.5 16.5V7.5C6.5 6.94772 6.94771 6.5 7.5 6.5H16.5C17.0523 6.5 17.5 6.94771 17.5 7.5V16.5C17.5 17.0523 17.0523 17.5 16.5 17.5H7.5C6.94772 17.5 6.5 17.0523 6.5 16.5Z" stroke="black" stroke-width="1.5"/>
<path d="M7.75 1C7.75 0.585786 7.41421 0.25 7 0.25C6.58579 0.25 6.25 0.585786 6.25 1H7.75ZM7.75 3V1H6.25V3H7.75Z" fill="black"/>
<path d="M10.75 1C10.75 0.585786 10.4142 0.25 10 0.25C9.58579 0.25 9.25 0.585786 9.25 1H10.75ZM10.75 3V1H9.25V3H10.75Z" fill="black"/>
<path d="M13.75 1C13.75 0.585786 13.4142 0.25 13 0.25C12.5858 0.25 12.25 0.585786 12.25 1H13.75ZM13.75 3V1H12.25V3H13.75Z" fill="black"/>
<path d="M16.75 1C16.75 0.585786 16.4142 0.25 16 0.25C15.5858 0.25 15.25 0.585786 15.25 1H16.75ZM16.75 3V1H15.25V3H16.75Z" fill="black"/>
<path d="M1 15.25C0.585786 15.25 0.25 15.5858 0.25 16C0.25 16.4142 0.585786 16.75 1 16.75V15.25ZM3 15.25H1V16.75H3V15.25Z" fill="black"/>
<path d="M1 12.25C0.585786 12.25 0.25 12.5858 0.25 13C0.25 13.4142 0.585786 13.75 1 13.75V12.25ZM3 12.25H1V13.75H3V12.25Z" fill="black"/>
<path d="M1 9.25C0.585786 9.25 0.25 9.58579 0.25 10C0.25 10.4142 0.585786 10.75 1 10.75V9.25ZM3 9.25H1V10.75H3V9.25Z" fill="black"/>
<path d="M1 6.25C0.585786 6.25 0.25 6.58579 0.25 7C0.25 7.41421 0.585786 7.75 1 7.75V6.25ZM3 6.25H1V7.75H3V6.25Z" fill="black"/>
<path d="M23 7.75C23.4142 7.75 23.75 7.41421 23.75 7C23.75 6.58579 23.4142 6.25 23 6.25V7.75ZM21 7.75H23V6.25H21V7.75Z" fill="black"/>
<path d="M23 10.75C23.4142 10.75 23.75 10.4142 23.75 10C23.75 9.58579 23.4142 9.25 23 9.25V10.75ZM21 10.75H23V9.25H21V10.75Z" fill="black"/>
<path d="M23 13.75C23.4142 13.75 23.75 13.4142 23.75 13C23.75 12.5858 23.4142 12.25 23 12.25V13.75ZM21 13.75H23V12.25H21V13.75Z" fill="black"/>
<path d="M23 16.75C23.4142 16.75 23.75 16.4142 23.75 16C23.75 15.5858 23.4142 15.25 23 15.25V16.75ZM21 16.75H23V15.25H21V16.75Z" fill="black"/>
<path d="M15.25 23C15.25 23.4142 15.5858 23.75 16 23.75C16.4142 23.75 16.75 23.4142 16.75 23H15.25ZM15.25 21V23H16.75V21H15.25Z" fill="black"/>
<path d="M12.25 23C12.25 23.4142 12.5858 23.75 13 23.75C13.4142 23.75 13.75 23.4142 13.75 23H12.25ZM12.25 21V23H13.75V21H12.25Z" fill="black"/>
<path d="M9.25 23C9.25 23.4142 9.58579 23.75 10 23.75C10.4142 23.75 10.75 23.4142 10.75 23H9.25ZM9.25 21V23H10.75V21H9.25Z" fill="black"/>
<path d="M6.25 23C6.25 23.4142 6.58579 23.75 7 23.75C7.41421 23.75 7.75 23.4142 7.75 23H6.25ZM6.25 21V23H7.75V21H6.25Z" fill="black"/>
</svg>
