<svg width="32" height="35" viewBox="0 0 32 35" fill="none" xmlns="http://www.w3.org/2000/svg">
<circle cx="23.9299" cy="4.27941" r="3.02941" fill="white" stroke="black" stroke-width="1.5"/>
<circle cx="27.577" cy="17.0441" r="3.02941" fill="white" stroke="black" stroke-width="1.5"/>
<path d="M24.3858 17.0441H15.7241" stroke="black" stroke-width="1.5"/>
<path d="M9.57759 28.0253V28.0253C9.57759 29.2621 10.5802 30.2647 11.817 30.2647H12.8483C14.6783 30.2647 16.1523 28.7633 16.1185 26.9336L15.7688 8.00546C15.7353 6.18971 14.2538 4.73529 12.4377 4.73529H12.2412C10.5097 4.73529 9.10599 6.13896 9.10599 7.87048V7.87048M9.57759 28.0253H7.80779C6.40452 28.0253 5.23108 26.9588 5.09736 25.5619L5.01998 24.7535C4.93015 23.815 4.1418 23.0986 3.19906 23.0986V23.0986C2.75104 23.0986 2.29985 22.9474 2.02807 22.5912C0.138283 20.1147 3.82994 17.2594 3.41529 17.5C2.99271 17.7452 -0.783175 15.9287 2.0387 13.2051C2.3247 12.929 2.72025 12.7972 3.11775 12.7972V12.7972C4.08083 12.7972 4.86156 12.0165 4.86156 11.0534V10.3338C4.86156 8.97337 5.96445 7.87048 7.32493 7.87048H9.10599M9.57759 28.0253V25.7859M9.10599 7.87048L10.0492 10.1099" stroke="black" stroke-width="1.5"/>
<path d="M5.69462 18.25C6.10884 18.25 6.44462 17.9142 6.44462 17.5C6.44462 17.0858 6.10884 16.75 5.69462 16.75V18.25ZM2.50345 18.25H3.41521V16.75H2.50345V18.25ZM3.41521 18.25H5.69462V16.75H3.41521V18.25Z" fill="black"/>
<circle cx="23.9299" cy="30.7206" r="3.02941" fill="white" stroke="black" stroke-width="1.5"/>
<path d="M21.6505 6.10294L20.4967 9.94911C20.3698 10.3721 19.9804 10.6618 19.5388 10.6618H15.2682" stroke="black" stroke-width="1.5"/>
<path d="M21.6505 28.4412L20.4967 24.595C20.3698 24.172 19.9804 23.8823 19.5388 23.8823H15.2682" stroke="black" stroke-width="1.5"/>
</svg>
